<?xml version="1.0" encoding="utf-8"?>
<svg viewBox="2.344 3.281 121.432 131.246" xmlns="http://www.w3.org/2000/svg">
  <g id="OBJECTS" transform="matrix(0.48605602979660034, 0, 0, 0.5562319755554199, -0.0434340015053607, -78.43612670898438)" style="">
    <g>
      <path d="M 5.185 203.699 C 10.896 198.499 17.504 193.954 24.593 190.714 C 24.04 189.513 23.55 188.344 23.153 187.211 C 20.302 187.84 17.598 189.016 15.014 190.454 C 14.928 190.502 14.859 190.378 14.938 190.325 C 17.375 188.694 20.167 187.543 23.06 186.956 C 23.032 186.87 22.996 186.783 22.967 186.698 C 22.866 186.39 22.786 186.062 22.715 185.727 C 18.304 186.265 13.918 186.827 9.624 188.091 C 9.533 188.117 9.499 187.983 9.585 187.951 C 13.786 186.44 18.243 185.962 22.67 185.484 C 21.915 181.47 23.04 175.866 23.04 174.419 C 23.04 172.82 22.603 171.442 22.167 170.86 C 21.731 170.279 21.731 167.155 20.715 165.194 C 19.697 163.232 19.915 159.381 20.715 154.66 C 21.514 149.938 23.33 148.557 26.381 149.066 C 29.433 149.575 33.863 155.604 35.97 157.929 C 38.077 160.253 39.748 161.198 39.748 161.198 C 46.577 158.219 54.06 161.561 54.06 161.561 C 54.06 161.561 54.932 160.036 56.094 159.963 C 57.256 159.89 59.073 159.963 60.235 159.091 C 61.397 158.219 63.214 155.604 66.992 153.207 C 70.769 150.809 72.948 149.501 73.966 149.864 C 74.983 150.227 74.837 152.916 73.893 157.056 C 72.949 161.197 72.15 164.03 71.423 165.265 C 70.697 166.499 70.479 167.154 70.624 167.88 C 70.752 168.519 70.935 171.349 70.483 173.06 C 72.595 172.006 74.671 170.87 76.841 169.936 C 76.909 169.907 76.97 170.003 76.9 170.039 C 74.694 171.165 72.55 172.441 70.323 173.535 C 70.302 173.588 70.282 173.644 70.259 173.693 C 69.533 175.218 69.678 176.089 70.187 176.816 C 70.331 177.021 70.503 177.433 70.68 177.944 C 73.514 177.513 76.389 177.277 79.195 177.184 C 84.109 177.022 89.075 177.659 93.734 179.25 C 93.777 179.266 93.759 179.334 93.714 179.32 C 88.98 177.863 84.138 177.332 79.195 177.464 C 76.361 177.539 73.59 177.927 70.822 178.373 C 70.858 178.483 70.892 178.598 70.928 178.714 C 72.636 178.627 74.347 178.611 76.014 178.666 C 79.348 178.775 82.604 179.575 85.32 181.571 C 85.367 181.604 85.325 181.68 85.274 181.649 C 82.291 179.81 79.022 179.074 75.547 178.961 C 74.049 178.913 72.551 179.027 71.055 179.15 C 71.168 179.553 71.276 179.969 71.37 180.372 C 72.524 180.618 73.688 180.804 74.857 180.993 C 74.952 181.008 74.928 181.161 74.835 181.158 C 73.689 181.118 72.559 180.935 71.442 180.687 C 71.572 181.27 71.67 181.805 71.711 182.19 C 71.856 183.571 72.074 184.66 73.672 185.241 C 75.27 185.822 75.27 185.895 78.467 186.912 C 81.663 187.93 84.933 189.237 87.475 191.27 C 90.018 193.304 90.308 194.031 91.762 194.322 C 93.214 194.613 97.5 195.557 100.988 196.138 C 104.475 196.719 106.945 197.954 109.342 198.753 C 111.74 199.552 116.606 202.095 118.35 202.458 C 120.094 202.821 126.268 203.329 132.226 206.308 C 138.183 209.287 144.285 212.193 150.678 218.513 C 165.692 233.356 180.032 265.131 177.121 286.51 C 176.249 292.903 174.506 297.552 184.095 302.783 C 193.684 308.013 201.531 312.953 206.18 317.893 C 210.828 322.832 219.836 333.873 223.325 342.01 C 228.016 352.957 233.298 366.059 245.407 366.584 C 262.927 367.344 246.837 383.535 235.528 380.949 C 225.358 378.625 215.77 368.164 209.085 356.25 C 202.402 344.336 186.129 313.388 162.592 318.837 C 160.844 319.241 160.848 319.273 155.763 320.217 C 150.678 321.161 143.122 320.871 141.379 320.792 C 139.635 320.713 138.908 319.418 138.545 319.636 C 138.183 319.854 138.908 319.418 137.528 320.464 C 136.148 321.51 128.156 319.708 123.943 319.854 C 119.73 319.999 109.487 319.782 108.252 319.782 C 107.017 319.782 105.419 319.419 105.419 319.419 C 103.603 320.799 99.025 320.363 97.718 320.285 C 96.41 320.206 97.282 320.726 94.449 320.285 C 91.616 319.843 90.525 316.513 90.453 314.624 C 90.381 312.735 93.505 311.137 93.505 311.137 C 90.962 310.41 92.052 307.723 92.125 306.924 C 92.197 306.124 94.521 304.817 96.773 303.872 C 99.025 302.928 102.221 303.364 102.221 303.364 C 102.221 303.364 100.987 298.35 100.187 293.193 C 99.388 288.035 96.701 287.09 95.175 285.565 C 93.65 284.04 92.632 283.894 91.833 284.911 C 91.034 285.929 90.38 286.727 90.161 288.617 C 89.943 290.506 89.217 298.714 88.999 302.056 C 88.781 305.399 86.675 311.646 85.803 316.077 C 84.932 320.509 78.176 320.509 75.051 320.136 C 71.928 319.764 72.146 319.128 72.146 319.128 C 72.146 319.128 70.911 320.436 68.005 320.072 C 65.1 319.709 64.881 316.731 65.172 313.534 C 65.462 310.338 69.239 309.102 70.766 308.158 C 72.291 307.214 74.47 306.996 74.47 306.996 C 74.47 306.996 75.488 302.855 75.342 299.223 C 75.197 295.591 73.453 283.096 72.799 279.754 C 72.146 276.412 70.838 270.673 69.239 268.784 C 67.641 266.895 61.974 258.903 54.056 252.366 C 46.137 245.827 43.159 243.212 40.399 238.418 C 37.638 233.623 37.275 231.517 35.966 229.482 C 34.658 227.448 34.877 218.439 35.022 216.914 C 35.168 215.389 34.877 214.88 33.642 212.847 C 32.407 210.813 31.1 204.855 28.993 199.988 C 28.303 198.392 27.559 196.849 26.823 195.347 C 23.281 198.271 20.017 201.398 17.217 205.098 C 17.16 205.172 17.034 205.106 17.087 205.022 C 19.611 201.083 23.057 197.96 26.693 195.081 C 26.482 194.652 26.276 194.23 26.07 193.81 C 19.653 197.728 14.287 202.69 9.047 208.142 C 9.009 208.182 8.95 208.121 8.986 208.08 C 13.949 202.388 19.516 197.45 25.954 193.572 C 25.535 192.718 25.13 191.879 24.748 191.056 C 17.781 194.545 11.346 198.78 5.297 203.809 C 5.22 203.88 5.106 203.77 5.185 203.699 Z" style="transform-box: fill-box; transform-origin: 50% 50%;"/>
    </g>
  </g>
</svg>