<?xml version="1.0" encoding="utf-8"?>
<svg viewBox="2.344 3.281 104.323 155.893" xmlns="http://www.w3.org/2000/svg">
  <defs>
    <filter id="a" height="111.7%" width="111.7%" x="-5.8%" y="-4.2%">
      <feOffset dy=".5" in="SourceAlpha" result="shadowOffsetOuter1"/>
      <feGaussianBlur in="shadowOffsetOuter1" result="shadowBlurOuter1" stdDeviation=".5"/>
      <feComposite in="shadowBlurOuter1" in2="SourceAlpha" operator="out" result="shadowBlurOuter1"/>
      <feColorMatrix in="shadowBlurOuter1" values="0 0 0 0 0 0 0 0 0 0 0 0 0 0 0 0 0 0 0.199473505 0"/>
    </filter>
    <linearGradient id="c" x1="50%" x2="50%" y1="0%" y2="100%">
      <stop offset="0" stop-color="#fff" stop-opacity=".5"/>
      <stop offset="1" stop-opacity=".5"/>
    </linearGradient>
    <filter id="d" height="117.5%" width="126.9%" x="-13.5%" y="-6.2%">
      <feOffset dy=".5" in="SourceAlpha" result="shadowOffsetOuter1"/>
      <feGaussianBlur in="shadowOffsetOuter1" result="shadowBlurOuter1" stdDeviation=".5"/>
      <feColorMatrix in="shadowBlurOuter1" values="0 0 0 0 0 0 0 0 0 0 0 0 0 0 0 0 0 0 0.204257246 0"/>
    </filter>
    <linearGradient id="gradient-1" x1="50%" x2="50%" y1="0%" y2="100%">
      <stop offset="0" stop-color="#fff" stop-opacity=".5"/>
      <stop offset="1" stop-opacity=".5"/>
    </linearGradient>
  </defs>
  <g id="Objects" transform="matrix(1, 0, 0, 1, -149.05332946777344, -83.3460922241211)">
    <g transform="matrix(1, 0, 0, 1, -188.372086, -200.58139)">
      <path style="fill:#FFCC99;" d="M432.789,428.942c2-11.083-4.963-20.92-4.963-20.92c3.787-39.254-11.043-53.024-11.043-53.024 l-25.137,1.614l-25.136-1.614c0,0-14.83,13.771-11.043,53.024c0,0-6.962,9.837-4.962,20.92c0,0-8.5,3.911-8.5,11.872h21.25 c0,0,3.011-1.582,3.256-5.811c0,0,4.244,6.062,11.244,6.062h13.892h13.892c7,0,11.244-6.062,11.244-6.062 c0.244,4.229,3.256,5.811,3.256,5.811h21.25C441.289,432.854,432.789,428.942,432.789,428.942z"/>
      <path style="fill:#6D4C41;" d="M367.39,297.63c0,0-25.911,5.632-23.714,23.57c0,0,0.355,7.042,9.513,6.45L367.39,297.63z"/>
      <path style="fill:#6D4C41;" d="M415.885,297.63c0,0,25.911,5.632,23.714,23.57c0,0-0.355,7.042-9.513,6.45L415.885,297.63z"/>
      <path style="fill:none;stroke:#4D3C2E;stroke-width:4;stroke-linejoin:round;stroke-miterlimit:10;" d="M367.39,297.63 c0,0-25.911,5.632-23.714,23.57c0,0,0.355,7.042,9.513,6.45L367.39,297.63z"/>
      <path style="fill:none;stroke:#4D3C2E;stroke-width:4;stroke-linejoin:round;stroke-miterlimit:10;" d="M415.885,297.63 c0,0,25.911,5.632,23.714,23.57c0,0-0.355,7.042-9.513,6.45L415.885,297.63z"/>
      <path style="fill:#C79F77;" d="M362.732,426.424c0,0,26.398,20.102,57.822,0c0,0-2.73,13.745-15.015,14.642h-27.784 C377.755,441.066,367.458,441.906,362.732,426.424z"/>
      <path style="fill:#C79F77;" d="M420.554,426.424c0,0,0.643,3.185,5.047,3.518c0,0-6.832,1.745-5.047,10.872 c0,0-3.169-0.708-4.151-5.582C416.403,435.233,419.269,431.823,420.554,426.424z"/>
      <path style="fill:#C79F77;" d="M362.953,426.424c0,0-0.643,3.185-5.047,3.518c0,0,6.832,1.745,5.047,10.872 c0,0,3.169-0.708,4.15-5.582C367.103,435.233,364.237,431.823,362.953,426.424z"/>
      <path style="fill:#FFCC99;" d="M420.26,304.268c-3.426-8.138-11.396-13.429-20.226-13.429h-8.387h-8.387 c-8.83,0-16.799,5.292-20.226,13.429l-8.397,19.944c-5.66,13.443,2.002,28.766,16.152,32.304h0 c0.254,0.063,0.514,0.095,0.775,0.095h20.083h20.083c0.261,0,0.522-0.032,0.775-0.095h0c14.15-3.538,21.812-18.861,16.152-32.304 L420.26,304.268z"/>
      <path style="fill:none;stroke:#4D3C2E;stroke-width:4;stroke-linejoin:round;stroke-miterlimit:10;" d="M432.789,428.942 c2-11.083-4.963-20.92-4.963-20.92c3.787-39.254-11.043-53.024-11.043-53.024c11.345-5.263,16.932-18.772,11.874-30.786 l-8.397-19.944c-3.426-8.138-11.396-13.429-20.226-13.429h-8.387h-8.387c-8.83,0-16.799,5.292-20.226,13.429l-8.397,19.944 c-5.059,12.014,0.529,25.523,11.874,30.786c0,0-14.83,13.771-11.043,53.024c0,0-6.962,9.837-4.962,20.92c0,0-8.5,3.911-8.5,11.872 h21.25c0,0,3.011-1.582,3.256-5.811c0,0,4.244,6.062,11.244,6.062h13.892h13.892c7,0,11.244-6.062,11.244-6.062 c0.244,4.229,3.256,5.811,3.256,5.811h21.25C441.289,432.854,432.789,428.942,432.789,428.942z"/>
      <path style="fill:none;stroke:#4D3C2E;stroke-width:4;stroke-linecap:round;stroke-linejoin:round;stroke-miterlimit:10;" d=" M362.505,425.609c0,0,2.88,11.736,10.023,14.285"/>
      <path style="fill:none;stroke:#4D3C2E;stroke-width:4;stroke-linecap:round;stroke-linejoin:round;stroke-miterlimit:10;" d=" M420.78,425.609c0,0-2.88,11.736-10.023,14.285"/>
      <path style="fill:none;stroke:#4D3C2E;stroke-width:4;stroke-linecap:round;stroke-linejoin:round;stroke-miterlimit:10;" d=" M353.841,410.782c0,0,3.33-6.84,9.83-8.507"/>
      <path style="fill:none;stroke:#4D3C2E;stroke-width:4;stroke-linecap:round;stroke-linejoin:round;stroke-miterlimit:10;" d=" M429.568,410.782c0,0-3.331-6.84-9.831-8.507"/>
      <g/>
      <path style="fill:#4D3C2E;" d="M391.561,318.284h-11.239v11.097v8.599c0,0,1.668,4.393,11.239,4.393 c9.57,0,11.239-4.393,11.239-4.393v-8.599v-11.097H391.561z"/>
      <path style="fill:none;stroke:#4D3C2E;stroke-width:4;stroke-linecap:round;stroke-linejoin:round;stroke-miterlimit:10;" d=" M420.039,440.815c0,0-1.409-10.414,7.216-11.164"/>
      <path style="fill:#6D4C41;" d="M391.561,318.284c0.755,0.529-3.716,6.905-4.13,7.377c-3.986,4.542-9.483,4.801-14.524,1.638 c-2.609-1.637-2.335-5.297-0.697-7.556c1.833-2.528,4.945-3.905,8.116-4.744c3.066-0.812,6.338-0.151,8.934,1.671L391.561,318.284 z"/>
      <path style="fill:#6D4C41;" d="M391.732,318.284c-0.754,0.529,3.716,6.905,4.13,7.377c3.986,4.542,9.483,4.801,14.524,1.638 c2.609-1.637,2.335-5.297,0.697-7.556c-1.76-2.428-4.7-3.793-7.738-4.642c-3.189-0.89-6.609-0.329-9.319,1.573L391.732,318.284z"/>
      <path style="fill:none;stroke:#4D3C2E;stroke-width:4;stroke-linecap:round;stroke-linejoin:round;stroke-miterlimit:10;" d=" M363.286,440.815c0,0,1.409-10.414-7.216-11.164"/>
      <path style="fill:none;stroke:#4D3C2E;stroke-width:4;stroke-linejoin:round;stroke-miterlimit:10;" d="M391.561,318.284 c0.755,0.529-3.716,6.905-4.13,7.377c-3.986,4.542-9.483,4.801-14.524,1.638c-2.609-1.637-2.335-5.297-0.697-7.556 c1.847-2.547,4.992-3.925,8.188-4.763c3.023-0.793,6.244-0.148,8.802,1.647L391.561,318.284z"/>
      <path style="fill:none;stroke:#4D3C2E;stroke-width:4;stroke-linejoin:round;stroke-miterlimit:10;" d="M391.732,318.284 c-0.754,0.529,3.716,6.905,4.13,7.377c3.986,4.542,9.483,4.801,14.524,1.638c2.609-1.637,2.335-5.297,0.697-7.556 c-1.847-2.547-4.992-3.925-8.188-4.763c-3.023-0.793-6.244-0.148-8.802,1.647L391.732,318.284z"/>
      <path style="fill:#4D3C2E;" d="M391.561,312.584h-4.708c-0.778,0-1.408,0.631-1.408,1.409l0,0c0,0.399,0.169,0.78,0.466,1.047 l3.204,2.883c0.259,0.233,0.594,0.361,0.942,0.361h1.504h1.505c0.348,0,0.684-0.129,0.942-0.361l3.204-2.883 c0.297-0.267,0.466-0.648,0.466-1.047l0,0c0-0.778-0.631-1.409-1.409-1.409H391.561z"/>
      <path style="fill:#D32F2F;" d="M391.561,357.055L391.561,357.055c-3.519,0-6.371-2.852-6.371-6.371v-9.976 c0-1.841,1.493-3.334,3.334-3.334h6.074c1.841,0,3.334,1.493,3.334,3.334v9.976C397.932,354.203,395.08,357.055,391.561,357.055z"/>
      <path style="fill:none;stroke:#4D3C2E;stroke-width:4;stroke-linecap:round;stroke-linejoin:round;stroke-miterlimit:10;" d=" M391.561,357.055L391.561,357.055c-3.519,0-6.371-2.852-6.371-6.371v-9.976c0-1.841,1.493-3.334,3.334-3.334h6.074 c1.841,0,3.334,1.493,3.334,3.334v9.976C397.932,354.203,395.08,357.055,391.561,357.055z"/>
      <line style="fill:#D32F2F;stroke:#4D3C2E;stroke-width:2;stroke-linecap:round;stroke-linejoin:round;stroke-miterlimit:10;" x1="391.561" y1="337.98" x2="391.561" y2="349.332"/>
      <path style="fill:none;stroke:#4D3C2E;stroke-width:4;stroke-linecap:round;stroke-linejoin:round;stroke-miterlimit:10;" d=" M370.835,370.871c0,0-1.128,24.232,4.979,24.232c6.106,0,4.979-24.232,4.979-24.232"/>
      <path style="fill:none;stroke:#4D3C2E;stroke-width:4;stroke-linecap:round;stroke-linejoin:round;stroke-miterlimit:10;" d=" M402.33,370.871c0,0-1.128,24.232,4.979,24.232c6.106,0,4.979-24.232,4.979-24.232"/>
    </g>
    <g/>
  </g>
  <g fill="none" fill-rule="evenodd" transform="matrix(0.5713329315185547, 0, 0, 0.5198630094528198, 56.17387771606445, 12.697037696838379)" style="">
    <circle cx="16" cy="15" r="15" fill="#000" filter="url(#a)"/>
    <circle cx="16" cy="15" r="15" fill="#6cde07"/>
    <circle cx="16" cy="15" r="15" fill="url(#c)"/>
    <circle cx="16" cy="15" r="14.5" stroke="#000" stroke-opacity=".097"/>
    <path d="M22.5 18.154c0 2.57-2.086 4.276-5.166 4.533V25h-2.11v-2.336A11.495 11.495 0 0 1 9.5 20.35l1.552-2.126c1.383 1.075 2.692 1.776 4.269 2.01v-4.58c-3.541-.888-5.19-2.173-5.19-4.813 0-2.523 2.061-4.252 5.093-4.486V5h2.11v1.402a9.49 9.49 0 0 1 4.56 1.776l-1.359 2.196c-1.067-.771-2.158-1.262-3.298-1.495v4.439c3.687.888 5.263 2.313 5.263 4.836zm-7.18-5.327V8.715c-1.527.117-2.327.935-2.327 1.963 0 .98.46 1.612 2.328 2.15zm4.318 5.49c0-1.05-.51-1.681-2.401-2.219v4.23c1.528-.118 2.401-.889 2.401-2.01z" fill="#000" filter="url(#d)"/>
    <path d="M22.5 18.154c0 2.57-2.086 4.276-5.166 4.533V25h-2.11v-2.336A11.495 11.495 0 0 1 9.5 20.35l1.552-2.126c1.383 1.075 2.692 1.776 4.269 2.01v-4.58c-3.541-.888-5.19-2.173-5.19-4.813 0-2.523 2.061-4.252 5.093-4.486V5h2.11v1.402a9.49 9.49 0 0 1 4.56 1.776l-1.359 2.196c-1.067-.771-2.158-1.262-3.298-1.495v4.439c3.687.888 5.263 2.313 5.263 4.836zm-7.18-5.327V8.715c-1.527.117-2.327.935-2.327 1.963 0 .98.46 1.612 2.328 2.15zm4.318 5.49c0-1.05-.51-1.681-2.401-2.219v4.23c1.528-.118 2.401-.889 2.401-2.01z" fill="#fff"/>
  </g>
  <g fill="none" fill-rule="evenodd" transform="matrix(0.5713329315185547, 0, 0, 0.5198630094528198, 34.42319107055664, 12.388181686401367)" style="">
    <circle cx="16" cy="15" r="15" fill="#000" filter="url(#a)"/>
    <circle cx="16" cy="15" r="15" fill="#6cde07"/>
    <circle cx="16" cy="15" r="15" fill="url(#gradient-1)"/>
    <circle cx="16" cy="15" r="14.5" stroke="#000" stroke-opacity=".097"/>
    <path d="M22.5 18.154c0 2.57-2.086 4.276-5.166 4.533V25h-2.11v-2.336A11.495 11.495 0 0 1 9.5 20.35l1.552-2.126c1.383 1.075 2.692 1.776 4.269 2.01v-4.58c-3.541-.888-5.19-2.173-5.19-4.813 0-2.523 2.061-4.252 5.093-4.486V5h2.11v1.402a9.49 9.49 0 0 1 4.56 1.776l-1.359 2.196c-1.067-.771-2.158-1.262-3.298-1.495v4.439c3.687.888 5.263 2.313 5.263 4.836zm-7.18-5.327V8.715c-1.527.117-2.327.935-2.327 1.963 0 .98.46 1.612 2.328 2.15zm4.318 5.49c0-1.05-.51-1.681-2.401-2.219v4.23c1.528-.118 2.401-.889 2.401-2.01z" fill="#000" filter="url(#d)"/>
    <path d="M22.5 18.154c0 2.57-2.086 4.276-5.166 4.533V25h-2.11v-2.336A11.495 11.495 0 0 1 9.5 20.35l1.552-2.126c1.383 1.075 2.692 1.776 4.269 2.01v-4.58c-3.541-.888-5.19-2.173-5.19-4.813 0-2.523 2.061-4.252 5.093-4.486V5h2.11v1.402a9.49 9.49 0 0 1 4.56 1.776l-1.359 2.196c-1.067-.771-2.158-1.262-3.298-1.495v4.439c3.687.888 5.263 2.313 5.263 4.836zm-7.18-5.327V8.715c-1.527.117-2.327.935-2.327 1.963 0 .98.46 1.612 2.328 2.15zm4.318 5.49c0-1.05-.51-1.681-2.401-2.219v4.23c1.528-.118 2.401-.889 2.401-2.01z" fill="#fff"/>
  </g>
</svg>