<?xml version="1.0"?>
<svg width="290" height="190" xmlns="http://www.w3.org/2000/svg" xmlns:svg="http://www.w3.org/2000/svg" enable-background="new 0 0 500 500" version="1.1" xml:space="preserve">
 <g class="layer">
  <title>Layer 1</title>
  <g id="Objects">
   <g id="svg_2">
    <circle cx="121.11" cy="23.89" fill="#FFCC99" id="svg_3" r="18.57"/>
    <circle cx="121.11" cy="23.89" fill="none" id="svg_4" r="18.57" stroke="#4D3C2E" stroke-linecap="round" stroke-linejoin="round" stroke-miterlimit="10" stroke-width="4"/>
    <path d="m40.86,109.51c0,0 8.48,-65.89 80.75,-65.89c72.28,0 79.73,65.89 79.73,65.89l-160.48,0z" fill="#FFCC99" id="svg_5"/>
    <path d="m121.61,59.26c-49.38,0 -68.97,30.76 -76.43,50.24l152.09,0c-7.16,-19.48 -26.28,-50.24 -75.66,-50.24z" fill="#C79F77" id="svg_6"/>
    <path d="m201.34,109.51c0,0 14.23,-37.49 31.75,-29.06s-26.84,55.73 -26.84,55.73s-4.1,8.66 -14.47,-0.57l9.56,-26.1z" fill="#FFCC99" id="svg_7"/>
    <path d="m40.89,109.51c0,0 -14.23,-37.49 -31.75,-29.06s26.84,55.73 26.84,55.73s4.1,8.66 14.47,-0.57l-9.56,-26.1z" fill="#FFCC99" id="svg_8"/>
    <path d="m40.86,109.51c0,0 8.48,-65.89 80.75,-65.89c72.28,0 79.73,65.89 79.73,65.89l-160.48,0z" fill="none" id="svg_9" stroke="#4D3C2E" stroke-linecap="round" stroke-linejoin="round" stroke-miterlimit="10" stroke-width="4"/>
    <path d="m29.96,107.04c-13.75,-27.91 -24.01,-14.46 -24.04,-14.42c5.04,16.85 30.06,43.56 30.06,43.56s0.87,1.83 2.82,2.91c1.77,-4.33 4.92,-4.1 -8.84,-32.04l0,-0.01z" fill="#C79F77" id="svg_10"/>
    <path d="m212.38,107.04c13.75,-27.91 24.02,-14.46 24.04,-14.42c-5.02,16.85 -30.05,43.56 -30.05,43.56s-0.88,1.83 -2.84,2.91c-1.75,-4.33 -4.92,-4.1 8.84,-32.04l0.01,-0.01z" fill="#C79F77" id="svg_11"/>
    <path d="m201.34,109.51c0,0 14.23,-37.49 31.75,-29.06s-26.84,55.73 -26.84,55.73s-4.1,8.66 -14.47,-0.57l9.56,-26.1z" fill="none" id="svg_12" stroke="#4D3C2E" stroke-linecap="round" stroke-linejoin="round" stroke-miterlimit="10" stroke-width="4"/>
    <path d="m40.89,109.51c0,0 -14.23,-37.49 -31.75,-29.06s26.84,55.73 26.84,55.73s4.1,8.66 14.47,-0.57l-9.56,-26.1z" fill="none" id="svg_13" stroke="#4D3C2E" stroke-linecap="round" stroke-linejoin="round" stroke-miterlimit="10" stroke-width="4"/>
    <path d="m80.65,82.84c0,0 -43.23,9.99 -39.57,41.82c0,0 0.6,12.49 15.88,11.44l23.69,-53.26z" fill="#6D4C41" id="svg_14"/>
    <path d="m161.55,82.84c0,0 43.23,9.99 39.57,41.82c0,0 -0.6,12.49 -15.88,11.44l-23.69,-53.26z" fill="#6D4C41" id="svg_15"/>
    <path d="m80.65,82.84c0,0 -43.23,9.99 -39.57,41.82c0,0 0.6,12.49 15.88,11.44l23.69,-53.26z" fill="none" id="svg_16" stroke="#4D3C2E" stroke-linecap="round" stroke-linejoin="round" stroke-miterlimit="10" stroke-width="4"/>
    <path d="m206.25,165.46c0,0 30.18,-3.09 30.18,22.02l-50.89,0l0,-22.12l20.7,0.11l0.01,-0.01z" fill="#FFCC99" id="svg_17"/>
    <path d="m222.83,167.57c-8.01,-2.98 -16.58,-2.09 -16.58,-2.09l-20.7,-0.12l0,22.12l16.68,0c10.78,0 19.62,-8.73 20.6,-19.91z" fill="#C79F77" id="svg_18"/>
    <path d="m206.25,165.46c0,0 30.18,-3.09 30.18,22.02l-50.89,0l0,-22.12l20.7,0.11l0.01,-0.01z" fill="none" id="svg_19" stroke="#4D3C2E" stroke-linecap="round" stroke-linejoin="round" stroke-miterlimit="10" stroke-width="4"/>
    <path d="m36.1,165.46c0,0 -30.18,-3.09 -30.18,22.02l50.89,0l0,-22.12l-20.7,0.11l-0.01,-0.01z" fill="#FFCC99" id="svg_20"/>
    <path d="m36.1,165.46c0,0 -8.66,-0.87 -16.7,2.16c1.02,11.14 9.84,19.85 20.6,19.85l16.8,0l0,-22.12l-20.7,0.11z" fill="#C79F77" id="svg_21"/>
    <path d="m36.1,165.46c0,0 -30.18,-3.09 -30.18,22.02l50.89,0l0,-22.12l-20.7,0.11l-0.01,-0.01z" fill="none" id="svg_22" stroke="#4D3C2E" stroke-linecap="round" stroke-linejoin="round" stroke-miterlimit="10" stroke-width="4"/>
    <path d="m161.55,82.84c0,0 43.23,9.99 39.57,41.82c0,0 -0.6,12.49 -15.88,11.44l-23.69,-53.26z" fill="none" id="svg_23" stroke="#4D3C2E" stroke-linecap="round" stroke-linejoin="round" stroke-miterlimit="10" stroke-width="4"/>
    <path d="m185.89,143.48c-0.28,-4.51 -1.27,-9.05 -3.02,-13.48l-14.01,-35.38c-5.72,-14.44 -19.02,-23.83 -33.75,-23.83l-13.98,0l-14,0c-14.73,0 -28.03,9.39 -33.75,23.83l-14,35.38c-1.77,4.44 -2.74,8.98 -3.04,13.48c-11.28,0.2 -20.35,9.95 -20.35,22c0,12.15 9.26,22 20.7,22l30.92,0l33.52,0l33.5,0l30.92,0c11.45,0 20.7,-9.85 20.7,-22c0,-12.05 -9.08,-21.8 -20.35,-22l-0.01,0z" fill="#FFCC99" id="svg_24"/>
    <ellipse cx="121.61" cy="160.1" fill="#6D4C41" id="svg_25" rx="12.61" ry="19.44"/>
    <ellipse cx="121.61" cy="160.1" fill="none" id="svg_26" rx="12.61" ry="19.44" stroke="#4D3C2E" stroke-linejoin="round" stroke-miterlimit="10" stroke-width="4"/>
    <path d="m117.87,143.29c2.09,1.56 3.12,4.24 2.69,6.9c-1.67,10.27 -8.06,33.85 -30.92,23.17c-24.14,-11.27 6.99,-28.35 17.82,-33.64c2.1,-1.03 4.57,-0.78 6.47,0.64l3.94,2.93z" fill="#6D4C41" id="svg_27"/>
    <path d="m124.39,143.29c-2.09,1.56 -3.12,4.24 -2.69,6.9c1.67,10.27 8.08,33.85 30.92,23.17c24.14,-11.27 -6.97,-28.35 -17.8,-33.64c-2.12,-1.03 -4.59,-0.78 -6.49,0.64l-3.94,2.93z" fill="#6D4C41" id="svg_28"/>
    <path d="m117.87,143.29c2.09,1.56 3.12,4.24 2.69,6.9c-1.67,10.27 -8.06,33.85 -30.92,23.17c-24.14,-11.27 6.99,-28.35 17.82,-33.64c2.1,-1.03 4.57,-0.78 6.47,0.64l3.94,2.93z" fill="none" id="svg_29" stroke="#4D3C2E" stroke-linecap="round" stroke-linejoin="round" stroke-miterlimit="10" stroke-width="4"/>
    <path d="m124.39,143.29c-2.09,1.56 -3.12,4.24 -2.69,6.9c1.67,10.27 8.08,33.85 30.92,23.17c24.14,-11.27 -6.97,-28.35 -17.8,-33.64c-2.12,-1.03 -4.59,-0.78 -6.49,0.64l-3.94,2.93z" fill="none" id="svg_30" stroke="#4D3C2E" stroke-linecap="round" stroke-linejoin="round" stroke-miterlimit="10" stroke-width="4"/>
    <path d="m121.11,135.6l-7.84,0c-1.3,0 -2.35,1.12 -2.35,2.5l0,0c0,0.71 0.28,1.38 0.77,1.85l5.36,5.13c0.43,0.41 0.98,0.64 1.57,0.64l2.5,0l2.52,0c0.58,0 1.13,-0.23 1.57,-0.64l5.34,-5.13c0.5,-0.46 0.78,-1.14 0.78,-1.85l0,0c0,-1.38 -1.05,-2.5 -2.35,-2.5l-7.86,0l-0.01,0z" fill="#4D3C2E" id="svg_31"/>
    <path d="m185.89,143.48c-0.28,-4.51 -1.27,-9.05 -3.02,-13.48l-14.01,-35.38c-5.72,-14.44 -19.02,-23.83 -33.75,-23.83l-13.98,0l-14,0c-14.73,0 -28.03,9.39 -33.75,23.83l-14,35.38c-1.77,4.44 -2.74,8.98 -3.04,13.48c-11.28,0.2 -20.35,9.95 -20.35,22c0,12.15 9.26,22 20.7,22l30.92,0l33.52,0l33.5,0l30.92,0c11.45,0 20.7,-9.85 20.7,-22c0,-12.05 -9.08,-21.8 -20.35,-22l-0.01,0z" fill="none" id="svg_32" stroke="#4D3C2E" stroke-linecap="round" stroke-linejoin="round" stroke-miterlimit="10" stroke-width="4"/>
    <line fill="none" id="svg_33" stroke="#4D3C2E" stroke-linecap="round" stroke-linejoin="round" stroke-miterlimit="10" stroke-width="4" x1="56.34" x2="68.75" y1="143.48" y2="143.48"/>
    <line fill="none" id="svg_34" stroke="#4D3C2E" stroke-linecap="round" stroke-linejoin="round" stroke-miterlimit="10" stroke-width="4" x1="173.49" x2="185.92" y1="143.48" y2="143.48"/>
    <path d="m76.23,129.27c0,0 14.4,13.13 34.64,0" fill="none" id="svg_35" stroke="#4D3C2E" stroke-linecap="round" stroke-linejoin="round" stroke-miterlimit="10" stroke-width="4"/>
    <path d="m131.52,129.27c0,0 14.4,13.13 34.65,0" fill="none" id="svg_36" stroke="#4D3C2E" stroke-linecap="round" stroke-linejoin="round" stroke-miterlimit="10" stroke-width="4"/>
    <path d="m131.32,40.35c0,0 -14.73,4.15 -15.57,-9.46c-0.83,-13.59 10.84,-8.87 10.84,-8.87" fill="none" id="svg_37" stroke="#4D3C2E" stroke-linecap="round" stroke-linejoin="round" stroke-miterlimit="10" stroke-width="4"/>
    <text fill="#4D3C2E" font-family="&#x27;Roboto-Black&#x27;" font-size="12px" id="svg_38" transform="matrix(2.16431 0 0 1.77414 215.953 126.356)" x="12.31" y="-38.81">Z</text>
    <text fill="#4D3C2E" font-family="&#x27;Roboto-Black&#x27;" font-size="21px" id="svg_39" transform="matrix(2.16431 0 0 1.77414 233.041 106.84)" x="12.31" y="-38.81">Z</text>
   </g>
  </g>
 </g>
</svg>